<svg xmlns="http://www.w3.org/2000/svg" aria-hidden="true" overflow="hidden" style="position:absolute;width:0;height:0">
  <defs>
    <symbol id="icon-arrow-up" viewBox="0 0 32 32">
      <path d="M22.467 28.133c0.333-0.333 0.5-0.728 0.5-1.184s-0.167-0.849-0.5-1.183l-9.767-9.767 9.8-9.8c0.311-0.311 0.467-0.7 0.467-1.167s-0.167-0.867-0.5-1.2c-0.333-0.333-0.728-0.5-1.184-0.5s-0.849 0.167-1.183 0.5l-11.2 11.233c-0.133 0.133-0.228 0.278-0.284 0.433s-0.083 0.322-0.083 0.5 0.028 0.344 0.083 0.5c0.056 0.156 0.151 0.3 0.284 0.433l11.233 11.233c0.311 0.311 0.694 0.467 1.149 0.467s0.851-0.167 1.184-0.5z"></path>
    </symbol>
  </defs>
</svg>
